<?xml version="1.0" encoding="UTF-8" standalone="no"?>
<!-- Created with Inkscape (http://www.inkscape.org/) -->

<svg
   xmlns:dc="http://purl.org/dc/elements/1.1/"
   xmlns:cc="http://creativecommons.org/ns#"
   xmlns:rdf="http://www.w3.org/1999/02/22-rdf-syntax-ns#"
   xmlns:svg="http://www.w3.org/2000/svg"
   xmlns="http://www.w3.org/2000/svg"
   xmlns:sodipodi="http://sodipodi.sourceforge.net/DTD/sodipodi-0.dtd"
   xmlns:inkscape="http://www.inkscape.org/namespaces/inkscape"
   width="600"
   height="600"
   id="svg2"
   version="1.1"
   inkscape:version="0.48.5 r10040"
   sodipodi:docname="ocd.svg"
   inkscape:export-filename="/Users/yetzt/dev/ocdata/assets/images/ocd.png"
   inkscape:export-xdpi="90"
   inkscape:export-ydpi="90">
  <defs
     id="defs4" />
  <sodipodi:namedview
     id="base"
     pagecolor="#ffffff"
     bordercolor="#666666"
     borderopacity="1.0"
     inkscape:pageopacity="0.0"
     inkscape:pageshadow="2"
     inkscape:zoom="0.44"
     inkscape:cx="-34.16758"
     inkscape:cy="246.53105"
     inkscape:document-units="px"
     inkscape:current-layer="layer1"
     showgrid="false"
     inkscape:snap-bbox="true"
     inkscape:snap-grids="true"
     inkscape:snap-object-midpoints="true"
     fit-margin-top="0"
     fit-margin-left="0"
     fit-margin-right="0"
     fit-margin-bottom="0"
     inkscape:window-width="1234"
     inkscape:window-height="756"
     inkscape:window-x="46"
     inkscape:window-y="0"
     inkscape:window-maximized="1" />
  <metadata
     id="metadata7">
    <rdf:RDF>
      <cc:Work
         rdf:about="">
        <dc:format>image/svg+xml</dc:format>
        <dc:type
           rdf:resource="http://purl.org/dc/dcmitype/StillImage" />
        <dc:title></dc:title>
      </cc:Work>
    </rdf:RDF>
  </metadata>
  <g
     inkscape:label="Ebene 1"
     inkscape:groupmode="layer"
     id="layer1"
     transform="translate(0,-452.36218)">
    <path
       style="fill:#333333;fill-opacity:1;stroke:none"
       d="m 155,652.36233 c -55.22847,0 -100,44.77153 -100,100 0,0.99957 0.002,2.00748 0.0312,3 l 0.0312,0 c 0.025,0.84112 0.0482,1.66421 0.0937,2.5 0.0861,1.57736 0.21671,3.16166 0.375,4.71875 0.009,0.093 0.0215,0.18832 0.0312,0.28125 0.0779,0.74644 0.15575,1.50854 0.25,2.25 0.009,0.0728 0.0218,0.14601 0.0312,0.21875 0.0983,0.75968 0.19726,1.49577 0.3125,2.25 0.01,0.0627 0.0216,0.12482 0.0312,0.1875 0.11827,0.76425 0.23953,1.52282 0.375,2.28125 0.009,0.0519 0.0219,0.10434 0.0312,0.15625 0.13851,0.76833 0.28155,1.55038 0.4375,2.3125 0.007,0.0319 0.0247,0.0618 0.0312,0.0937 0.32848,1.59719 0.69013,3.18157 1.09375,4.75 0.60544,2.35264 1.29356,4.65515 2.0625,6.9375 0.0138,0.041 0.0174,0.0841 0.0312,0.125 0.50088,1.48043 1.05762,2.9578 1.625,4.40625 0.024,0.0612 0.0384,0.12633 0.0625,0.1875 0.56157,1.42526 1.15701,2.82636 1.78125,4.21875 0.15118,0.33715 0.31396,0.66484 0.46875,1 0.17843,0.3864 0.34806,0.77253 0.53125,1.15625 0.0503,0.10544 0.10554,0.20726 0.15625,0.3125 0.63858,1.32556 1.30549,2.6452 2,3.9375 0.0666,0.12382 0.12041,0.2515 0.1875,0.375 0.68843,1.26812 1.41534,2.51573 2.15625,3.75 0.0871,0.14502 0.16218,0.29296 0.25,0.4375 0.6812,1.1219 1.40149,2.2201 2.125,3.3125 0.13719,0.20714 0.26756,0.41894 0.40625,0.625 0.029,0.0431 0.0647,0.0819 0.0937,0.125 0.32749,0.48493 0.66428,0.95868 1,1.4375 0.82297,1.17379 1.65988,2.33269 2.53125,3.46875 0.19885,0.25925 0.39243,0.52401 0.59375,0.78125 0.10998,0.14052 0.23304,0.26634 0.34375,0.40625 0.4082,0.51592 0.83192,1.02364 1.25,1.53125 0.0146,0.0177 0.0166,0.0448 0.0312,0.0625 0.33643,0.40791 0.68852,0.8163 1.03125,1.21875 0.50937,0.59812 1.00817,1.19541 1.53125,1.78125 0.52308,0.58584 1.0572,1.14543 1.59375,1.71875 0.21073,0.22513 0.41222,0.46433 0.625,0.6875 0.32899,0.34513 0.66615,0.69085 1,1.03125 0.54976,0.56055 1.12477,1.10872 1.6875,1.65625 0.23355,0.22704 0.45175,0.46273 0.6875,0.6875 0.33234,0.31713 0.66333,0.62493 1,0.9375 0.57546,0.53427 1.16207,1.073 1.75,1.59375 0.49127,0.43486 1.00018,0.85598 1.5,1.28125 0.0958,0.0816 0.18512,0.16879 0.28125,0.25 0.28888,0.24394 0.58333,0.47804 0.875,0.71875 0.51303,0.42356 1.04095,0.83656 1.5625,1.25 0.32593,0.25813 0.63955,0.52711 0.96875,0.78125 0.15279,0.1181 0.31526,0.22652 0.46875,0.34375 0.5047,0.38499 1.01907,0.78072 1.53125,1.15625 0.10265,0.0753 0.20956,0.14382 0.3125,0.21875 0.5101,0.37107 1.01393,0.7634 1.53125,1.125 0.0799,0.0559 0.1699,0.10057 0.25,0.15625 0.35456,0.24627 0.70462,0.47697 1.0625,0.71875 0.35682,0.24125 0.70242,0.48201 1.0625,0.71875 0.59615,0.39195 1.20756,0.77681 1.8125,1.15625 0.46548,0.2918 0.93567,0.5907 1.40625,0.875 0.2012,0.12159 0.39163,0.25479 0.59375,0.375 0.41621,0.24745 0.82992,0.4772 1.25,0.71875 0.49572,0.28525 0.99897,0.56681 1.5,0.84375 0.2067,0.11419 0.41741,0.23098 0.625,0.34375 0.25761,0.14 0.52228,0.26846 0.78125,0.40625 0.60288,0.3206 1.20235,0.62896 1.8125,0.9375 0.0963,0.0487 0.18474,0.10782 0.28125,0.15625 0.47316,0.23736 0.96009,0.45746 1.4375,0.6875 0.4571,0.22034 0.91406,0.44269 1.375,0.65625 0.43663,0.20218 0.87249,0.39771 1.3125,0.59375 0.0938,0.0418 0.1873,0.0835 0.28125,0.125 1.22172,0.54007 2.47191,1.07054 3.71875,1.5625 0.0737,0.029 0.14499,0.0649 0.21875,0.0937 0.52677,0.20639 1.06267,0.39609 1.59375,0.59375 0.21025,0.0782 0.41408,0.17318 0.625,0.25 0.14542,0.053 0.29177,0.1039 0.4375,0.15625 0.5698,0.20453 1.14421,0.39933 1.71875,0.59375 0.54911,0.18583 1.10291,0.35475 1.65625,0.53125 0.22207,0.0708 0.43351,0.14947 0.65625,0.21875 0.17568,0.0547 0.35515,0.1025 0.53125,0.15625 1.39421,0.4252 2.79942,0.82232 4.21875,1.1875 0.71444,0.18393 1.43572,0.36281 2.15625,0.53125 0.12535,0.0293 0.24947,0.0649 0.375,0.0937 0.25736,0.0591 0.52313,0.0991 0.78125,0.15625 0.509,0.11253 1.01937,0.239 1.53125,0.34375 0.12346,0.0253 0.25138,0.0377 0.375,0.0625 0.69156,0.13879 1.39711,0.28181 2.09375,0.40625 0.53314,0.0953 1.05771,0.16322 1.59375,0.25 0.29314,0.0475 0.58102,0.11133 0.875,0.15625 0.084,0.0128 0.16592,0.0186 0.25,0.0312 0.74456,0.11183 1.46891,0.21718 2.21875,0.3125 0.0828,0.0105 0.16718,0.0209 0.25,0.0312 0.81445,0.10147 1.64834,0.19949 2.46875,0.28125 0.41837,0.0417 0.83012,0.0884 1.25,0.125 0.36417,0.0317 0.72847,0.066 1.09375,0.0937 0.0418,0.003 0.0832,-0.003 0.125,0 0.80508,0.0602 1.59597,0.11518 2.40625,0.15625 0.0312,0.002 0.0625,-0.002 0.0937,0 0.82127,0.0409 1.64238,0.0728 2.46875,0.0937 0.86274,0.022 1.7257,0.0312 2.59375,0.0312 1.31793,0 2.63197,-0.0432 3.9375,-0.0937 1.40187,-0.0544 2.80102,-0.13855 4.1875,-0.25 0.0625,-0.005 0.12499,0.005 0.1875,0 0.57773,-0.0475 1.14385,-0.099 1.71875,-0.15625 0.0309,-0.003 0.0628,0.003 0.0937,0 0.7943,-0.08 1.5863,-0.18279 2.375,-0.28125 0.8246,-0.10286 1.65051,-0.22095 2.46875,-0.34375 0.4958,-0.0744 0.97536,-0.1371 1.46875,-0.21875 0.48228,-0.0797 0.95758,-0.16341 1.4375,-0.25 0.63812,-0.11529 1.27241,-0.24765 1.90625,-0.375 0.6542,-0.13144 1.31924,-0.26211 1.96875,-0.40625 0.14669,-0.0325 0.29105,-0.0606 0.4375,-0.0937 1.39026,-0.31465 2.7574,-0.65936 4.125,-1.03125 0.97729,-0.26592 1.94112,-0.54916 2.90625,-0.84375 0.77019,-0.23508 1.55033,-0.46569 2.3125,-0.71875 1.5996,-0.5307 3.1874,-1.1106 4.75,-1.71875 0.2397,-0.0934 0.47995,-0.18601 0.71875,-0.28125 0.42128,-0.16774 0.83156,-0.35797 1.25,-0.53125 0.73662,-0.30551 1.49115,-0.615 2.21875,-0.9375 0.7276,-0.3225 1.43791,-0.66077 2.15625,-1 1.14807,-0.54161 2.28264,-1.10398 3.40625,-1.6875 0.16635,-0.0865 0.3342,-0.16262 0.5,-0.25 0.11502,-0.0606 0.229,-0.12652 0.34375,-0.1875 0.17679,-0.0941 0.35509,-0.18615 0.53125,-0.28125 0.988,-0.5327 1.96983,-1.06037 2.9375,-1.625 0.22892,-0.13369 0.45974,-0.2708 0.6875,-0.40625 0.67604,-0.40181 1.33436,-0.83282 2,-1.25 0.0904,-0.0567 0.19109,-0.0993 0.28125,-0.15625 0.58047,-0.3664 1.14643,-0.74706 1.71875,-1.125 0.65759,-0.43446 1.2909,-0.86304 1.9375,-1.3125 0.79762,-0.55374 1.59451,-1.11136 2.375,-1.6875 0.13836,-0.10224 0.26844,-0.20956 0.40625,-0.3125 0.9852,-0.73508 1.94953,-1.47991 2.90625,-2.25 0.61214,-0.49298 1.21234,-0.99301 1.8125,-1.5 0.60016,-0.50699 1.19332,-1.0105 1.78125,-1.53125 0.50021,-0.44305 1.00881,-0.8909 1.5,-1.34375 0.087,-0.0801 0.16333,-0.16959 0.25,-0.25 1.15091,-1.06853 2.27547,-2.16015 3.375,-3.28125 1.09953,-1.1211 2.17259,-2.26581 3.21875,-3.4375 15.16932,-16.98949 24.62009,-39.20132 25.34375,-63.59375 l 0.15625,0 c -0.0591,-0.99542 -0.0937,-1.98974 -0.0937,-3 0,-0.67363 0.0361,-1.33284 0.0625,-2 0.0607,-1.5339 0.17914,-3.06715 0.375,-4.5625 0.0884,-0.67469 0.19751,-1.33406 0.3125,-2 0.0397,-0.23051 0.0822,-0.45808 0.125,-0.6875 0.11023,-0.58862 0.24433,-1.16884 0.375,-1.75 0.16458,-0.732 0.33495,-1.46804 0.53125,-2.1875 0.19473,-0.71371 0.39982,-1.42439 0.625,-2.125 0.20155,-0.62794 0.39958,-1.25819 0.625,-1.875 0.0272,-0.0742 0.0662,-0.14469 0.0937,-0.21875 0.25898,-0.69828 0.52362,-1.37939 0.8125,-2.0625 0.28164,-0.66588 0.59695,-1.31798 0.90625,-1.96875 0.31509,-0.66294 0.62573,-1.32227 0.96875,-1.96875 0.26222,-0.4942 0.53436,-0.98457 0.8125,-1.46875 0.13244,-0.23067 0.27025,-0.45917 0.40625,-0.6875 0.32202,-0.54045 0.65842,-1.06672 1,-1.59375 0.39359,-0.60729 0.79991,-1.1925 1.21875,-1.78125 0.22949,-0.32267 0.45059,-0.65184 0.6875,-0.96875 0.14211,-0.19002 0.29276,-0.37458 0.4375,-0.5625 0.10401,-0.13508 0.20715,-0.27227 0.3125,-0.40625 0.39742,-0.50526 0.80255,-1.01071 1.21875,-1.5 0.35781,-0.42081 0.7224,-0.84139 1.09375,-1.25 0.0498,-0.0548 0.10621,-0.10168 0.15625,-0.15625 0.4164,-0.45417 0.84849,-0.87403 1.28125,-1.3125 0.0989,-0.10021 0.18152,-0.21312 0.28125,-0.3125 0.54255,-0.54051 1.08943,-1.07851 1.65625,-1.59375 0.0108,-0.01 0.0204,-0.0214 0.0312,-0.0312 0.0383,-0.0348 0.0865,-0.0591 0.125,-0.0937 1.0294,-0.92821 2.11452,-1.81513 3.21875,-2.65625 0.57689,-0.43943 1.15382,-0.86672 1.75,-1.28125 0.56909,-0.39569 1.13277,-0.78394 1.71875,-1.15625 0.0318,-0.0202 0.0619,-0.0424 0.0937,-0.0625 0.0714,-0.0452 0.1471,-0.0802 0.21875,-0.125 0.30927,-0.19334 0.62375,-0.37578 0.9375,-0.5625 0.36625,-0.21794 0.72152,-0.44749 1.09375,-0.65625 0.50353,-0.28255 1.01713,-0.54707 1.53125,-0.8125 0.60837,-0.31409 1.22114,-0.61672 1.84375,-0.90625 0.18651,-0.0868 0.37475,-0.16548 0.5625,-0.25 0.45403,-0.20435 0.91389,-0.40268 1.375,-0.59375 0.19851,-0.0822 0.39396,-0.17027 0.59375,-0.25 0.54551,-0.21786 1.10147,-0.426 1.65625,-0.625 2.07344,-0.74373 4.21631,-1.34524 6.40625,-1.8125 0.1349,-0.0287 0.27095,-0.0661 0.40625,-0.0937 0.60478,-0.12376 1.19998,-0.24205 1.8125,-0.34375 0.74667,-0.12398 1.49254,-0.222 2.25,-0.3125 1.96535,-0.23481 3.97142,-0.375 6,-0.375 18.50565,0 31.66701,12.22676 43.28125,25 12.94529,14.23712 71.71475,23.03619 71.7185,-22 l 2.5e-4,-3 25,0 c 27.61424,0 50,22.38576 50,50 0,27.61424 -22.38576,50 -50,50 l -25,0 0,-3 c 0,-45.40978 -58.77346,-36.23712 -71.71875,-22 -11.61424,12.77324 -24.7756,25 -43.28125,25 -21.18397,0 -39.27837,-13.17897 -46.5625,-31.78125 -3.43574,19.60856 -12.3278,37.3391 -25.03125,51.59375 18.16261,18.6277 43.52089,30.1875 71.59375,30.1875 24.82757,0 47.54966,-9.02399 65.03125,-24 0.51372,13.38997 11.44857,24 24.96875,24 l 6,0 19,0 25,0 c 55.22847,0 100,-44.77153 100,-100 0,-55.22847 -44.77153,-100 -100,-100 l -25,0 -19,0 -6,0 c -13.52018,0 -24.45503,10.61003 -24.96875,24 -17.48159,-14.97601 -40.20368,-24 -65.03125,-24 -2.01525,0 -4.01427,0.07 -6,0.1875 -2.42713,0.14359 -4.84129,0.37388 -7.21875,0.6875 -0.17583,0.0232 -0.35571,0.0384 -0.53125,0.0625 -0.61258,0.0842 -1.20352,0.18603 -1.8125,0.28125 -0.78652,0.12298 -1.59468,0.26505 -2.375,0.40625 -0.78032,0.1412 -1.5386,0.27831 -2.3125,0.4375 -0.6564,0.13495 -1.31711,0.28976 -1.96875,0.4375 -0.11339,0.0257 -0.23051,0.0364 -0.34375,0.0625 -0.59966,0.13819 -1.18577,0.28859 -1.78125,0.4375 -0.47004,0.11751 -0.93887,0.21962 -1.40625,0.34375 -0.39528,0.105 -0.79416,0.2028 -1.1875,0.3125 -0.0639,0.0178 -0.12365,0.0445 -0.1875,0.0625 -1.50658,0.42362 -2.99191,0.88348 -4.46875,1.375 -0.73842,0.24576 -1.4881,0.51885 -2.21875,0.78125 -0.23769,0.0853 -0.4819,0.16292 -0.71875,0.25 -0.49069,0.18047 -0.98171,0.37459 -1.46875,0.5625 -0.62535,0.24124 -1.25579,0.46538 -1.875,0.71875 -0.21193,0.0867 -0.4138,0.1931 -0.625,0.28125 -0.31067,0.12963 -0.62843,0.24234 -0.9375,0.375 -0.28349,0.12173 -0.56162,0.25073 -0.84375,0.375 -0.70598,0.31097 -1.39645,0.64205 -2.09375,0.96875 -0.61051,0.28591 -1.2088,0.57719 -1.8125,0.875 -0.45309,0.22351 -0.89457,0.45737 -1.34375,0.6875 -0.33072,0.16941 -0.67143,0.32702 -1,0.5 -0.67107,0.35342 -1.33806,0.72563 -2,1.09375 -0.10119,0.0562 -0.21153,0.0997 -0.3125,0.15625 -0.56683,0.31783 -1.12757,0.64026 -1.6875,0.96875 -0.66036,0.38741 -1.31819,0.78548 -1.96875,1.1875 -0.54157,0.33467 -1.09036,0.65534 -1.625,1 -0.15778,0.10172 -0.31158,0.20992 -0.46875,0.3125 -0.58904,0.38445 -1.16966,0.79105 -1.75,1.1875 -0.57154,0.39043 -1.15581,0.7856 -1.71875,1.1875 -0.0542,0.0387 -0.10217,0.0862 -0.15625,0.125 -0.5162,0.3701 -1.02245,0.74537 -1.53125,1.125 -0.42838,0.31971 -0.85821,0.64237 -1.28125,0.96875 -0.26011,0.20066 -0.52318,0.39059 -0.78125,0.59375 -0.62148,0.4892 -1.23429,0.9965 -1.84375,1.5 -0.58702,0.48496 -1.17436,0.97076 -1.75,1.46875 -0.1343,0.11621 -0.27258,0.22684 -0.40625,0.34375 -0.92867,0.81205 -1.82089,1.65462 -2.71875,2.5 -0.19905,0.18742 -0.39624,0.37348 -0.59375,0.5625 -0.16562,0.15849 -0.33548,0.30914 -0.5,0.46875 -0.26504,0.25715 -0.51906,0.5212 -0.78125,0.78125 -0.35171,0.34882 -0.71597,0.67726 -1.0625,1.03125 -0.18937,0.19339 -0.3747,0.39883 -0.5625,0.59375 -0.48662,0.50528 -0.9615,1.01583 -1.4375,1.53125 -0.16407,0.17758 -0.33721,0.35248 -0.5,0.53125 -0.3456,0.37968 -0.69146,0.77126 -1.03125,1.15625 -15.15647,17.1636 -24.4884,39.56788 -24.96875,64.15625 l -0.0937,0 c 0.0264,0.66716 0.0625,1.32637 0.0625,2 0,27.61424 -22.38576,50 -50,50 -27.61424,0 -50,-22.38576 -50,-50 0,-27.61424 22.38576,-50 50,-50 21.20845,0 39.32625,13.20743 46.59375,31.84375 3.42291,-19.64234 12.28278,-37.41454 25,-51.6875 C 208.43223,663.90042 183.06468,652.36233 155,652.36233 z"
       id="path3849"
       inkscape:connector-curvature="0"
       sodipodi:nodetypes="ssccscccccsccccsccccccccccccscccsccccssccsccsccccccccccccscccccccccccccccccccccccccccccccccccccccccscccccccccscccsccccsccccccccccccccssccssccsssccssccccssccscccccccccccssscccccsccccsccssssscssscsssccscsccsssccscssccsscccccccsccccccscsccccsscsscccccsccsccccccccccssssccs" />
  </g>
</svg>
